Coordinates
version=1
nRows=8
nColumns=63
inDegrees=yes

Units are S.I. units (second, meters, Newtons, ...)
If the header above contains a line with 'inDegrees', this indicates whether rotational values are in degrees (yes) or radians (no).

endheader
time	pelvis_tilt	pelvis_list	pelvis_rotation	pelvis_tx	pelvis_ty	pelvis_tz	hip_flexion_r	hip_adduction_r	hip_rotation_r	knee_angle_r	knee_angle_r_beta	ankle_angle_r	subtalar_angle_r	mtp_angle_r	hip_flexion_l	hip_adduction_l	hip_rotation_l	knee_angle_l	knee_angle_l_beta	ankle_angle_l	subtalar_angle_l	mtp_angle_l	L5_S1_Flex_Ext	L5_S1_Lat_Bending	L5_S1_axial_rotation	L4_L5_Flex_Ext	L4_L5_Lat_Bending	L4_L5_axial_rotation	L3_L4_Flex_Ext	L3_L4_Lat_Bending	L3_L4_axial_rotation	L2_L3_Flex_Ext	L2_L3_Lat_Bending	L2_L3_axial_rotation	L1_L2_Flex_Ext	L1_L2_Lat_Bending	L1_L2_axial_rotation	L1_T12_Flex_Ext	L1_T12_Lat_Bending	L1_T12_axial_rotation	Abs_r3	Abs_r2	Abs_r1	Abs_t1	Abs_t2	neck_flexion	neck_bending	neck_rotation	arm_flex_r	arm_add_r	arm_rot_r	elbow_flex_r	pro_sup_r	wrist_flex_r	wrist_dev_r	arm_flex_l	arm_add_l	arm_rot_l	elbow_flex_l	pro_sup_l	wrist_flex_l	wrist_dev_l
2.766667	-10.757441	3.873290	125.675852	0.070259	0.791261	0.625189	5.353589	-15.029733	-18.520448	46.167336	0.805772	34.402928	-19.771945	0.000000	-9.939240	8.203763	20.159244	9.444363	0.164835	13.028676	17.273003	0.000000	-0.504789	0.010689	0.438067	-0.937444	0.014216	0.465446	-0.829318	0.025989	0.465446	-0.576924	0.025989	0.383308	-0.468747	0.021797	0.355929	-0.288437	0.016557	0.328550	-3.605660	0.120917	2.436396	0.000000	0.000000	4.495391	-21.486508	-29.002659	-0.829701	-13.661763	146.093879	0.619229	7.351129	-12.447688	-15.644090	-4.414179	-15.793653	107.909465	0.593975	1.865129	-15.998931	-21.020871
2.783333	-10.856694	3.630344	125.566936	0.070881	0.790673	0.625909	5.894163	-15.278483	-18.145924	46.651158	0.814216	34.481852	-19.772982	0.000000	-9.673588	8.458722	19.984101	9.520068	0.166157	12.950943	17.310691	0.000000	-0.504118	-0.014505	0.473068	-0.936197	-0.019291	0.502635	-0.828215	-0.035267	0.502635	-0.576156	-0.035267	0.413934	-0.468124	-0.029578	0.384368	-0.288053	-0.022468	0.354801	-3.600862	-0.164081	2.631062	0.000000	0.000000	4.402318	-21.026761	-29.281345	-0.828220	-13.597235	145.771889	0.626248	6.912978	-11.974522	-15.683376	-4.206066	-15.848810	108.116328	0.588153	1.841253	-16.087685	-21.055863
2.800000	-10.927666	3.383475	125.457046	0.071474	0.790040	0.626661	6.420520	-15.531726	-17.885644	47.107304	0.822178	34.463904	-19.774437	0.000000	-9.424002	8.687301	19.778096	9.536694	0.166447	12.892650	17.351330	0.000000	-0.500525	-0.037246	0.506045	-0.929524	-0.049537	0.537672	-0.822312	-0.090559	0.537672	-0.572050	-0.090559	0.442789	-0.464787	-0.075951	0.411161	-0.286000	-0.057693	0.379534	-3.575198	-0.421329	2.814469	0.000000	0.000000	4.340905	-20.594692	-29.544778	-0.842553	-13.565478	145.130573	0.644980	6.402986	-11.399094	-15.773906	-3.995932	-15.895137	108.424582	0.578095	1.808941	-16.224920	-21.139100
2.816667	-10.988433	3.124331	125.331488	0.072089	0.789354	0.627404	6.942902	-15.812925	-17.726646	47.562171	0.830116	34.359004	-19.776253	0.000000	-9.185461	8.913913	19.491259	9.516447	0.166093	12.862381	17.405759	0.000000	-0.494695	-0.060556	0.537979	-0.918697	-0.080539	0.571603	-0.812734	-0.147235	0.571603	-0.565387	-0.147235	0.470732	-0.459373	-0.123485	0.437108	-0.282669	-0.093801	0.403485	-3.533554	-0.685017	2.992080	0.000000	0.000000	4.295466	-20.225551	-29.841698	-0.861123	-13.557900	144.109007	0.664124	5.823321	-10.585719	-15.922722	-3.804510	-15.959151	108.832867	0.563319	1.765356	-16.382078	-21.295719
2.833333	-11.031550	2.873330	125.198079	0.072706	0.788651	0.628059	7.436844	-16.094371	-17.671328	48.002833	0.837807	34.173760	-19.778498	0.000000	-8.985352	9.117342	19.174165	9.445590	0.164857	12.867436	17.457023	0.000000	-0.486756	-0.082686	0.567450	-0.903955	-0.109973	0.602916	-0.799692	-0.201044	0.602916	-0.556314	-0.201044	0.496519	-0.452002	-0.168614	0.461053	-0.278133	-0.128081	0.425588	-3.476852	-0.935365	3.155987	0.000000	0.000000	4.287105	-19.870662	-30.109218	-0.890724	-13.566248	142.789172	0.683814	5.293942	-9.782034	-16.132174	-3.663947	-16.040003	109.288624	0.544393	1.716449	-16.578320	-21.524086
2.850000	-11.052913	2.651465	125.079398	0.073341	0.787959	0.628569	7.889877	-16.343014	-17.697901	48.426821	0.845207	33.948203	-19.780835	0.000000	-8.844362	9.274600	18.874668	9.322809	0.162714	12.921050	17.503371	0.000000	-0.478255	-0.102606	0.591111	-0.888167	-0.136466	0.628056	-0.785725	-0.249476	0.628056	-0.546597	-0.249476	0.517222	-0.444107	-0.209234	0.480278	-0.273275	-0.158937	0.443333	-3.416127	-1.160699	3.287583	0.000000	0.000000	4.314169	-19.502550	-30.332617	-0.924273	-13.578615	141.320188	0.698700	4.955435	-9.169033	-16.378081	-3.589611	-16.142397	109.757164	0.521895	1.657612	-16.826995	-21.808837
2.866667	-11.042045	2.469836	124.967291	0.074024	0.787301	0.628895	8.317940	-16.517653	-17.741942	48.832422	0.852287	33.720618	-19.782722	0.000000	-8.762492	9.372133	18.603091	9.159380	0.159861	13.040900	17.539080	0.000000	-0.469172	-0.118711	0.611441	-0.871299	-0.157885	0.649656	-0.770802	-0.288633	0.649656	-0.536216	-0.288633	0.535011	-0.435673	-0.242075	0.496796	-0.268085	-0.183883	0.458581	-3.351246	-1.342879	3.400650	0.000000	0.000000	4.350078	-19.134316	-30.533369	-0.958582	-13.589179	139.956570	0.700797	4.697588	-8.855350	-16.634943	-3.576356	-16.252682	110.230172	0.495758	1.582286	-17.140441	-22.055732
2.883333	-10.989230	2.348140	124.897089	0.074731	0.786713	0.629024	8.696889	-16.575382	-17.788536	49.190064	0.858529	33.528660	-19.783288	0.000000	-8.749166	9.382796	18.399771	8.963506	0.156443	13.240593	17.569722	0.000000	-0.460836	-0.128375	0.621885	-0.855818	-0.170739	0.660752	-0.757107	-0.312131	0.660752	-0.526689	-0.312131	0.544149	-0.427932	-0.261782	0.505281	-0.263321	-0.198853	0.466413	-3.291703	-1.452202	3.458735	0.000000	0.000000	4.397237	-18.757461	-30.672746	-0.994198	-13.596733	138.665075	0.673108	4.514341	-8.750671	-16.924709	-3.612118	-16.355034	110.656247	0.467602	1.504959	-17.511989	-22.209190
